<mxfile host="app.diagrams.net" modified="2023-09-26T03:57:49.554Z" agent="Mozilla/5.0 (Macintosh; Intel Mac OS X 10.15; rv:109.0) Gecko/20100101 Firefox/117.0" etag="Qv1LEEseQ0ZWsAX1mPul" version="21.8.2" type="github">
  <diagram name="PÃ¡gina-1" id="MMVE2O3sZKS96sRR5gyj">
    <mxGraphModel dx="-556" dy="696" grid="1" gridSize="10" guides="1" tooltips="1" connect="1" arrows="1" fold="1" page="1" pageScale="1" pageWidth="827" pageHeight="1169" math="0" shadow="0">
      <root>
        <mxCell id="0" />
        <mxCell id="1" parent="0" />
        <mxCell id="sNScvnanyXqIVsTAT2gB-1" style="edgeStyle=orthogonalEdgeStyle;rounded=0;orthogonalLoop=1;jettySize=auto;html=1;entryX=0.5;entryY=0;entryDx=0;entryDy=0;endArrow=none;endFill=0;" edge="1" parent="1" source="sNScvnanyXqIVsTAT2gB-2" target="sNScvnanyXqIVsTAT2gB-5">
          <mxGeometry relative="1" as="geometry" />
        </mxCell>
        <mxCell id="sNScvnanyXqIVsTAT2gB-2" value="comercializa" style="rhombus;whiteSpace=wrap;html=1;" vertex="1" parent="1">
          <mxGeometry x="1815" y="188.00000000000023" width="100" height="80" as="geometry" />
        </mxCell>
        <mxCell id="sNScvnanyXqIVsTAT2gB-3" style="edgeStyle=orthogonalEdgeStyle;rounded=0;orthogonalLoop=1;jettySize=auto;html=1;entryX=0.5;entryY=0;entryDx=0;entryDy=0;endArrow=none;endFill=0;" edge="1" parent="1" source="sNScvnanyXqIVsTAT2gB-4" target="sNScvnanyXqIVsTAT2gB-2">
          <mxGeometry relative="1" as="geometry" />
        </mxCell>
        <mxCell id="sNScvnanyXqIVsTAT2gB-4" value="Preoveedor" style="rounded=1;whiteSpace=wrap;html=1;" vertex="1" parent="1">
          <mxGeometry x="1805" y="88.00000000000023" width="120" height="60" as="geometry" />
        </mxCell>
        <mxCell id="sNScvnanyXqIVsTAT2gB-48" style="edgeStyle=orthogonalEdgeStyle;rounded=0;orthogonalLoop=1;jettySize=auto;html=1;entryX=0;entryY=0.5;entryDx=0;entryDy=0;endArrow=none;endFill=0;" edge="1" parent="1" source="sNScvnanyXqIVsTAT2gB-5" target="sNScvnanyXqIVsTAT2gB-21">
          <mxGeometry relative="1" as="geometry" />
        </mxCell>
        <mxCell id="sNScvnanyXqIVsTAT2gB-5" value="Producto" style="rounded=1;whiteSpace=wrap;html=1;" vertex="1" parent="1">
          <mxGeometry x="1805" y="308.0000000000002" width="120" height="60" as="geometry" />
        </mxCell>
        <mxCell id="sNScvnanyXqIVsTAT2gB-6" value="&lt;div&gt;1&lt;/div&gt;&lt;div&gt;:&lt;/div&gt;&lt;div&gt;N&lt;br&gt;&lt;/div&gt;" style="text;html=1;align=center;verticalAlign=middle;resizable=0;points=[];autosize=1;strokeColor=none;fillColor=none;" vertex="1" parent="1">
          <mxGeometry x="1917" y="201.00000000000023" width="27" height="55" as="geometry" />
        </mxCell>
        <mxCell id="sNScvnanyXqIVsTAT2gB-7" value="1" style="text;html=1;align=center;verticalAlign=middle;resizable=0;points=[];autosize=1;strokeColor=none;fillColor=none;" vertex="1" parent="1">
          <mxGeometry x="1865" y="148.00000000000023" width="30" height="30" as="geometry" />
        </mxCell>
        <mxCell id="sNScvnanyXqIVsTAT2gB-8" value="1" style="text;html=1;align=center;verticalAlign=middle;resizable=0;points=[];autosize=1;strokeColor=none;fillColor=none;" vertex="1" parent="1">
          <mxGeometry x="1835" y="148.00000000000023" width="30" height="30" as="geometry" />
        </mxCell>
        <mxCell id="sNScvnanyXqIVsTAT2gB-10" value="N" style="text;html=1;align=center;verticalAlign=middle;resizable=0;points=[];autosize=1;strokeColor=none;fillColor=none;" vertex="1" parent="1">
          <mxGeometry x="1837" y="280.0000000000002" width="27" height="26" as="geometry" />
        </mxCell>
        <mxCell id="sNScvnanyXqIVsTAT2gB-11" style="edgeStyle=orthogonalEdgeStyle;rounded=0;orthogonalLoop=1;jettySize=auto;html=1;entryX=0.5;entryY=0;entryDx=0;entryDy=0;endArrow=none;endFill=0;" edge="1" source="sNScvnanyXqIVsTAT2gB-12" target="sNScvnanyXqIVsTAT2gB-14" parent="1">
          <mxGeometry relative="1" as="geometry" />
        </mxCell>
        <mxCell id="sNScvnanyXqIVsTAT2gB-12" value="tiene" style="rhombus;whiteSpace=wrap;html=1;" vertex="1" parent="1">
          <mxGeometry x="1815" y="408.0000000000002" width="100" height="80" as="geometry" />
        </mxCell>
        <mxCell id="sNScvnanyXqIVsTAT2gB-13" style="edgeStyle=orthogonalEdgeStyle;rounded=0;orthogonalLoop=1;jettySize=auto;html=1;entryX=0.5;entryY=0;entryDx=0;entryDy=0;endArrow=none;endFill=0;" edge="1" target="sNScvnanyXqIVsTAT2gB-12" parent="1">
          <mxGeometry relative="1" as="geometry">
            <mxPoint x="1865" y="368" as="sourcePoint" />
          </mxGeometry>
        </mxCell>
        <mxCell id="sNScvnanyXqIVsTAT2gB-14" value="Categoria" style="rounded=1;whiteSpace=wrap;html=1;" vertex="1" parent="1">
          <mxGeometry x="1805" y="528.0000000000002" width="120" height="60" as="geometry" />
        </mxCell>
        <mxCell id="sNScvnanyXqIVsTAT2gB-15" value="&lt;div&gt;N&lt;br&gt;&lt;/div&gt;&lt;div&gt;:&lt;/div&gt;&lt;div&gt;1&lt;br&gt;&lt;/div&gt;" style="text;html=1;align=center;verticalAlign=middle;resizable=0;points=[];autosize=1;strokeColor=none;fillColor=none;" vertex="1" parent="1">
          <mxGeometry x="1917" y="421.0000000000002" width="27" height="55" as="geometry" />
        </mxCell>
        <mxCell id="sNScvnanyXqIVsTAT2gB-16" value="N" style="text;html=1;align=center;verticalAlign=middle;resizable=0;points=[];autosize=1;strokeColor=none;fillColor=none;" vertex="1" parent="1">
          <mxGeometry x="1867" y="370.0000000000002" width="27" height="26" as="geometry" />
        </mxCell>
        <mxCell id="sNScvnanyXqIVsTAT2gB-17" value="1" style="text;html=1;align=center;verticalAlign=middle;resizable=0;points=[];autosize=1;strokeColor=none;fillColor=none;" vertex="1" parent="1">
          <mxGeometry x="1835" y="368.0000000000002" width="30" height="30" as="geometry" />
        </mxCell>
        <mxCell id="sNScvnanyXqIVsTAT2gB-18" value="1" style="text;html=1;align=center;verticalAlign=middle;resizable=0;points=[];autosize=1;strokeColor=none;fillColor=none;" vertex="1" parent="1">
          <mxGeometry x="1868" y="500.0000000000002" width="25" height="26" as="geometry" />
        </mxCell>
        <mxCell id="sNScvnanyXqIVsTAT2gB-19" value="1" style="text;html=1;align=center;verticalAlign=middle;resizable=0;points=[];autosize=1;strokeColor=none;fillColor=none;" vertex="1" parent="1">
          <mxGeometry x="1835" y="498.0000000000002" width="30" height="30" as="geometry" />
        </mxCell>
        <mxCell id="sNScvnanyXqIVsTAT2gB-49" style="edgeStyle=orthogonalEdgeStyle;rounded=0;orthogonalLoop=1;jettySize=auto;html=1;endArrow=none;endFill=0;" edge="1" parent="1" source="sNScvnanyXqIVsTAT2gB-21" target="sNScvnanyXqIVsTAT2gB-23">
          <mxGeometry relative="1" as="geometry" />
        </mxCell>
        <mxCell id="sNScvnanyXqIVsTAT2gB-21" value="adquiere" style="rhombus;whiteSpace=wrap;html=1;" vertex="1" parent="1">
          <mxGeometry x="2025" y="298" width="100" height="80" as="geometry" />
        </mxCell>
        <mxCell id="sNScvnanyXqIVsTAT2gB-23" value="Cliente" style="rounded=1;whiteSpace=wrap;html=1;" vertex="1" parent="1">
          <mxGeometry x="2172" y="307.73000000000025" width="120" height="60" as="geometry" />
        </mxCell>
        <mxCell id="sNScvnanyXqIVsTAT2gB-36" value="" style="ellipse;whiteSpace=wrap;html=1;aspect=fixed;fillColor=#000000;" vertex="1" parent="1">
          <mxGeometry x="2025" y="300" width="10" height="10" as="geometry" />
        </mxCell>
        <mxCell id="sNScvnanyXqIVsTAT2gB-37" value="nro_factura" style="text;html=1;align=center;verticalAlign=middle;resizable=0;points=[];autosize=1;strokeColor=none;fillColor=none;" vertex="1" parent="1">
          <mxGeometry x="1975" y="275.81" width="80" height="30" as="geometry" />
        </mxCell>
        <mxCell id="sNScvnanyXqIVsTAT2gB-39" style="rounded=0;orthogonalLoop=1;jettySize=auto;html=1;entryX=0.233;entryY=0.263;entryDx=0;entryDy=0;entryPerimeter=0;endArrow=none;endFill=0;" edge="1" parent="1" source="sNScvnanyXqIVsTAT2gB-36" target="sNScvnanyXqIVsTAT2gB-21">
          <mxGeometry relative="1" as="geometry" />
        </mxCell>
        <mxCell id="sNScvnanyXqIVsTAT2gB-40" style="rounded=0;orthogonalLoop=1;jettySize=auto;html=1;exitX=0;exitY=1;exitDx=0;exitDy=0;entryX=1;entryY=0;entryDx=0;entryDy=0;endArrow=none;endFill=0;" edge="1" parent="1" source="sNScvnanyXqIVsTAT2gB-41" target="sNScvnanyXqIVsTAT2gB-21">
          <mxGeometry relative="1" as="geometry">
            <mxPoint x="2102" y="320.36" as="targetPoint" />
          </mxGeometry>
        </mxCell>
        <mxCell id="sNScvnanyXqIVsTAT2gB-41" value="" style="ellipse;whiteSpace=wrap;html=1;aspect=fixed;" vertex="1" parent="1">
          <mxGeometry x="2107" y="300.36" width="10" height="10" as="geometry" />
        </mxCell>
        <mxCell id="sNScvnanyXqIVsTAT2gB-42" value="fecha" style="text;html=1;align=center;verticalAlign=middle;resizable=0;points=[];autosize=1;strokeColor=none;fillColor=none;" vertex="1" parent="1">
          <mxGeometry x="2085" y="274" width="50" height="30" as="geometry" />
        </mxCell>
        <mxCell id="sNScvnanyXqIVsTAT2gB-50" value="1" style="text;html=1;align=center;verticalAlign=middle;resizable=0;points=[];autosize=1;strokeColor=none;fillColor=none;" vertex="1" parent="1">
          <mxGeometry x="1924" y="308.36000000000024" width="30" height="30" as="geometry" />
        </mxCell>
        <mxCell id="sNScvnanyXqIVsTAT2gB-51" value="N" style="text;html=1;align=center;verticalAlign=middle;resizable=0;points=[];autosize=1;strokeColor=none;fillColor=none;" vertex="1" parent="1">
          <mxGeometry x="2142" y="307.73000000000025" width="30" height="30" as="geometry" />
        </mxCell>
        <mxCell id="sNScvnanyXqIVsTAT2gB-52" value="N" style="text;html=1;align=center;verticalAlign=middle;resizable=0;points=[];autosize=1;strokeColor=none;fillColor=none;" vertex="1" parent="1">
          <mxGeometry x="1925" y="338.0000000000002" width="30" height="30" as="geometry" />
        </mxCell>
        <mxCell id="sNScvnanyXqIVsTAT2gB-53" value="1" style="text;html=1;align=center;verticalAlign=middle;resizable=0;points=[];autosize=1;strokeColor=none;fillColor=none;" vertex="1" parent="1">
          <mxGeometry x="2142" y="338.09000000000026" width="30" height="30" as="geometry" />
        </mxCell>
        <mxCell id="sNScvnanyXqIVsTAT2gB-54" value="N:M" style="text;html=1;align=center;verticalAlign=middle;resizable=0;points=[];autosize=1;strokeColor=none;fillColor=none;" vertex="1" parent="1">
          <mxGeometry x="2050.5" y="258.36000000000024" width="50" height="30" as="geometry" />
        </mxCell>
        <mxCell id="sNScvnanyXqIVsTAT2gB-56" style="rounded=0;orthogonalLoop=1;jettySize=auto;html=1;entryX=0.165;entryY=0.005;entryDx=0;entryDy=0;entryPerimeter=0;endArrow=none;endFill=0;" edge="1" parent="1" source="sNScvnanyXqIVsTAT2gB-57" target="sNScvnanyXqIVsTAT2gB-4">
          <mxGeometry relative="1" as="geometry">
            <mxPoint x="1824.4999999999998" y="90.00000000000016" as="targetPoint" />
          </mxGeometry>
        </mxCell>
        <mxCell id="sNScvnanyXqIVsTAT2gB-57" value="" style="ellipse;whiteSpace=wrap;html=1;aspect=fixed;fillColor=#000;" vertex="1" parent="1">
          <mxGeometry x="1819.9999999999998" y="59.92" width="10" height="10" as="geometry" />
        </mxCell>
        <mxCell id="sNScvnanyXqIVsTAT2gB-58" value="NIT" style="text;html=1;align=center;verticalAlign=middle;resizable=0;points=[];autosize=1;strokeColor=none;fillColor=none;" vertex="1" parent="1">
          <mxGeometry x="1804.9999999999998" y="30.000000000000156" width="40" height="30" as="geometry" />
        </mxCell>
        <mxCell id="sNScvnanyXqIVsTAT2gB-62" style="edgeStyle=orthogonalEdgeStyle;rounded=0;orthogonalLoop=1;jettySize=auto;html=1;endArrow=none;endFill=0;" edge="1" parent="1" source="sNScvnanyXqIVsTAT2gB-63">
          <mxGeometry relative="1" as="geometry">
            <mxPoint x="1805" y="120" as="targetPoint" />
          </mxGeometry>
        </mxCell>
        <mxCell id="sNScvnanyXqIVsTAT2gB-63" value="" style="ellipse;whiteSpace=wrap;html=1;aspect=fixed;" vertex="1" parent="1">
          <mxGeometry x="1774.9999999999998" y="114.92000000000016" width="10" height="10" as="geometry" />
        </mxCell>
        <mxCell id="sNScvnanyXqIVsTAT2gB-64" style="edgeStyle=orthogonalEdgeStyle;rounded=0;orthogonalLoop=1;jettySize=auto;html=1;endArrow=none;endFill=0;" edge="1" parent="1" source="sNScvnanyXqIVsTAT2gB-65">
          <mxGeometry relative="1" as="geometry">
            <mxPoint x="1805" y="140" as="targetPoint" />
          </mxGeometry>
        </mxCell>
        <mxCell id="sNScvnanyXqIVsTAT2gB-65" value="" style="ellipse;whiteSpace=wrap;html=1;aspect=fixed;" vertex="1" parent="1">
          <mxGeometry x="1774.9999999999998" y="134.92000000000016" width="10" height="10" as="geometry" />
        </mxCell>
        <mxCell id="sNScvnanyXqIVsTAT2gB-66" value="telÃ©fono_prov" style="text;html=1;align=center;verticalAlign=middle;resizable=0;points=[];autosize=1;strokeColor=none;fillColor=none;" vertex="1" parent="1">
          <mxGeometry x="1674.9999999999998" y="95.00000000000016" width="100" height="30" as="geometry" />
        </mxCell>
        <mxCell id="sNScvnanyXqIVsTAT2gB-67" value="pÃ¡gina_web" style="text;html=1;align=center;verticalAlign=middle;resizable=0;points=[];autosize=1;strokeColor=none;fillColor=none;" vertex="1" parent="1">
          <mxGeometry x="1679.9999999999998" y="125.00000000000016" width="90" height="30" as="geometry" />
        </mxCell>
        <mxCell id="sNScvnanyXqIVsTAT2gB-71" style="edgeStyle=orthogonalEdgeStyle;rounded=0;orthogonalLoop=1;jettySize=auto;html=1;exitX=0.5;exitY=1;exitDx=0;exitDy=0;endArrow=none;endFill=0;entryX=0.5;entryY=0;entryDx=0;entryDy=0;" edge="1" parent="1" source="sNScvnanyXqIVsTAT2gB-72" target="sNScvnanyXqIVsTAT2gB-4">
          <mxGeometry relative="1" as="geometry">
            <mxPoint x="1865" y="90" as="targetPoint" />
          </mxGeometry>
        </mxCell>
        <mxCell id="sNScvnanyXqIVsTAT2gB-72" value="" style="ellipse;whiteSpace=wrap;html=1;aspect=fixed;" vertex="1" parent="1">
          <mxGeometry x="1859.98" y="59.92" width="10" height="10" as="geometry" />
        </mxCell>
        <mxCell id="sNScvnanyXqIVsTAT2gB-73" value="nombre_prov" style="text;html=1;align=center;verticalAlign=middle;resizable=0;points=[];autosize=1;strokeColor=none;fillColor=none;" vertex="1" parent="1">
          <mxGeometry x="1849.05" y="30" width="90" height="30" as="geometry" />
        </mxCell>
        <mxCell id="sNScvnanyXqIVsTAT2gB-74" style="rounded=0;orthogonalLoop=1;jettySize=auto;html=1;entryX=1;entryY=0.25;entryDx=0;entryDy=0;endArrow=none;endFill=0;" edge="1" parent="1" source="sNScvnanyXqIVsTAT2gB-77">
          <mxGeometry relative="1" as="geometry">
            <mxPoint x="1924" y="118.03999999999996" as="targetPoint" />
          </mxGeometry>
        </mxCell>
        <mxCell id="sNScvnanyXqIVsTAT2gB-75" style="rounded=0;orthogonalLoop=1;jettySize=auto;html=1;exitX=1;exitY=0;exitDx=0;exitDy=0;entryX=0;entryY=1;entryDx=0;entryDy=0;endArrow=none;endFill=0;" edge="1" parent="1" source="sNScvnanyXqIVsTAT2gB-77" target="sNScvnanyXqIVsTAT2gB-81">
          <mxGeometry relative="1" as="geometry" />
        </mxCell>
        <mxCell id="sNScvnanyXqIVsTAT2gB-76" style="rounded=0;orthogonalLoop=1;jettySize=auto;html=1;exitX=1;exitY=1;exitDx=0;exitDy=0;entryX=0;entryY=0;entryDx=0;entryDy=0;endArrow=none;endFill=0;" edge="1" parent="1" source="sNScvnanyXqIVsTAT2gB-77" target="sNScvnanyXqIVsTAT2gB-82">
          <mxGeometry relative="1" as="geometry" />
        </mxCell>
        <mxCell id="sNScvnanyXqIVsTAT2gB-77" value="" style="ellipse;whiteSpace=wrap;html=1;aspect=fixed;" vertex="1" parent="1">
          <mxGeometry x="1954.0299999999997" y="112.92000000000007" width="10" height="10" as="geometry" />
        </mxCell>
        <mxCell id="sNScvnanyXqIVsTAT2gB-78" value="dir_prov" style="text;html=1;align=center;verticalAlign=middle;resizable=0;points=[];autosize=1;strokeColor=none;fillColor=none;" vertex="1" parent="1">
          <mxGeometry x="1914.9999999999998" y="75" width="70" height="30" as="geometry" />
        </mxCell>
        <mxCell id="sNScvnanyXqIVsTAT2gB-79" style="rounded=0;orthogonalLoop=1;jettySize=auto;html=1;exitX=0;exitY=0.5;exitDx=0;exitDy=0;entryX=1;entryY=0.5;entryDx=0;entryDy=0;endArrow=none;endFill=0;" edge="1" parent="1" source="sNScvnanyXqIVsTAT2gB-80" target="sNScvnanyXqIVsTAT2gB-77">
          <mxGeometry relative="1" as="geometry" />
        </mxCell>
        <mxCell id="sNScvnanyXqIVsTAT2gB-80" value="" style="ellipse;whiteSpace=wrap;html=1;aspect=fixed;" vertex="1" parent="1">
          <mxGeometry x="1989.0299999999997" y="103.08000000000023" width="9.84" height="9.84" as="geometry" />
        </mxCell>
        <mxCell id="sNScvnanyXqIVsTAT2gB-81" value="" style="ellipse;whiteSpace=wrap;html=1;aspect=fixed;" vertex="1" parent="1">
          <mxGeometry x="1979.0299999999997" y="85.00000000000023" width="10" height="10" as="geometry" />
        </mxCell>
        <mxCell id="sNScvnanyXqIVsTAT2gB-82" value="" style="ellipse;whiteSpace=wrap;html=1;aspect=fixed;" vertex="1" parent="1">
          <mxGeometry x="1979.0299999999997" y="144.92000000000007" width="10" height="10" as="geometry" />
        </mxCell>
        <mxCell id="sNScvnanyXqIVsTAT2gB-83" value="num_prov" style="text;html=1;align=center;verticalAlign=middle;resizable=0;points=[];autosize=1;strokeColor=none;fillColor=none;" vertex="1" parent="1">
          <mxGeometry x="1992.9999999999998" y="88.00000000000007" width="80" height="30" as="geometry" />
        </mxCell>
        <mxCell id="sNScvnanyXqIVsTAT2gB-84" value="calle_prov" style="text;html=1;align=center;verticalAlign=middle;resizable=0;points=[];autosize=1;strokeColor=none;fillColor=none;" vertex="1" parent="1">
          <mxGeometry x="1984.9999999999998" y="61.92" width="80" height="30" as="geometry" />
        </mxCell>
        <mxCell id="sNScvnanyXqIVsTAT2gB-85" value="ciudad_prov" style="text;html=1;align=center;verticalAlign=middle;resizable=0;points=[];autosize=1;strokeColor=none;fillColor=none;" vertex="1" parent="1">
          <mxGeometry x="1979.9999999999998" y="144.92000000000002" width="90" height="30" as="geometry" />
        </mxCell>
        <mxCell id="sNScvnanyXqIVsTAT2gB-90" value="comuna_prov" style="text;html=1;align=center;verticalAlign=middle;resizable=0;points=[];autosize=1;strokeColor=none;fillColor=none;" vertex="1" parent="1">
          <mxGeometry x="1992.9999999999998" y="118.00000000000007" width="100" height="30" as="geometry" />
        </mxCell>
        <mxCell id="sNScvnanyXqIVsTAT2gB-91" value="" style="ellipse;whiteSpace=wrap;html=1;aspect=fixed;" vertex="1" parent="1">
          <mxGeometry x="1989.0299999999997" y="128.00000000000023" width="9.84" height="9.84" as="geometry" />
        </mxCell>
        <mxCell id="sNScvnanyXqIVsTAT2gB-93" style="rounded=0;orthogonalLoop=1;jettySize=auto;html=1;endArrow=none;endFill=0;entryX=0.968;entryY=0.721;entryDx=0;entryDy=0;entryPerimeter=0;" edge="1" parent="1" source="sNScvnanyXqIVsTAT2gB-91" target="sNScvnanyXqIVsTAT2gB-77">
          <mxGeometry relative="1" as="geometry">
            <mxPoint x="1965" y="120" as="targetPoint" />
          </mxGeometry>
        </mxCell>
        <mxCell id="sNScvnanyXqIVsTAT2gB-94" style="rounded=0;orthogonalLoop=1;jettySize=auto;html=1;entryX=0.165;entryY=0.005;entryDx=0;entryDy=0;entryPerimeter=0;endArrow=none;endFill=0;" edge="1" source="sNScvnanyXqIVsTAT2gB-95" parent="1">
          <mxGeometry relative="1" as="geometry">
            <mxPoint x="2192" y="308.27000000000004" as="targetPoint" />
          </mxGeometry>
        </mxCell>
        <mxCell id="sNScvnanyXqIVsTAT2gB-95" value="" style="ellipse;whiteSpace=wrap;html=1;aspect=fixed;fillColor=#000;" vertex="1" parent="1">
          <mxGeometry x="2187" y="280.19000000000005" width="10" height="10" as="geometry" />
        </mxCell>
        <mxCell id="sNScvnanyXqIVsTAT2gB-96" value="CI" style="text;html=1;align=center;verticalAlign=middle;resizable=0;points=[];autosize=1;strokeColor=none;fillColor=none;" vertex="1" parent="1">
          <mxGeometry x="2172" y="250.27000000000015" width="40" height="30" as="geometry" />
        </mxCell>
        <mxCell id="sNScvnanyXqIVsTAT2gB-97" style="edgeStyle=orthogonalEdgeStyle;rounded=0;orthogonalLoop=1;jettySize=auto;html=1;exitX=0.5;exitY=1;exitDx=0;exitDy=0;endArrow=none;endFill=0;entryX=0.5;entryY=0;entryDx=0;entryDy=0;" edge="1" source="sNScvnanyXqIVsTAT2gB-98" parent="1">
          <mxGeometry relative="1" as="geometry">
            <mxPoint x="2232" y="308.27000000000004" as="targetPoint" />
            <Array as="points">
              <mxPoint x="2232" y="299.73" />
              <mxPoint x="2232" y="299.73" />
            </Array>
          </mxGeometry>
        </mxCell>
        <mxCell id="sNScvnanyXqIVsTAT2gB-98" value="" style="ellipse;whiteSpace=wrap;html=1;aspect=fixed;" vertex="1" parent="1">
          <mxGeometry x="2226.98" y="280.19000000000005" width="10" height="10" as="geometry" />
        </mxCell>
        <mxCell id="sNScvnanyXqIVsTAT2gB-99" value="nombre_cli" style="text;html=1;align=center;verticalAlign=middle;resizable=0;points=[];autosize=1;strokeColor=none;fillColor=none;" vertex="1" parent="1">
          <mxGeometry x="2221.05" y="250.27" width="80" height="30" as="geometry" />
        </mxCell>
        <mxCell id="sNScvnanyXqIVsTAT2gB-100" style="rounded=0;orthogonalLoop=1;jettySize=auto;html=1;entryX=1;entryY=0.25;entryDx=0;entryDy=0;endArrow=none;endFill=0;" edge="1" source="sNScvnanyXqIVsTAT2gB-103" parent="1">
          <mxGeometry relative="1" as="geometry">
            <mxPoint x="2291" y="338.31" as="targetPoint" />
          </mxGeometry>
        </mxCell>
        <mxCell id="sNScvnanyXqIVsTAT2gB-101" style="rounded=0;orthogonalLoop=1;jettySize=auto;html=1;exitX=1;exitY=0;exitDx=0;exitDy=0;entryX=0;entryY=1;entryDx=0;entryDy=0;endArrow=none;endFill=0;" edge="1" source="sNScvnanyXqIVsTAT2gB-103" target="sNScvnanyXqIVsTAT2gB-106" parent="1">
          <mxGeometry relative="1" as="geometry" />
        </mxCell>
        <mxCell id="sNScvnanyXqIVsTAT2gB-102" style="rounded=0;orthogonalLoop=1;jettySize=auto;html=1;exitX=1;exitY=1;exitDx=0;exitDy=0;entryX=0;entryY=0;entryDx=0;entryDy=0;endArrow=none;endFill=0;" edge="1" source="sNScvnanyXqIVsTAT2gB-103" target="sNScvnanyXqIVsTAT2gB-107" parent="1">
          <mxGeometry relative="1" as="geometry" />
        </mxCell>
        <mxCell id="sNScvnanyXqIVsTAT2gB-103" value="" style="ellipse;whiteSpace=wrap;html=1;aspect=fixed;" vertex="1" parent="1">
          <mxGeometry x="2351.9999999999995" y="333.73000000000013" width="10" height="10" as="geometry" />
        </mxCell>
        <mxCell id="sNScvnanyXqIVsTAT2gB-104" style="rounded=0;orthogonalLoop=1;jettySize=auto;html=1;exitX=0;exitY=0.5;exitDx=0;exitDy=0;entryX=1;entryY=0.5;entryDx=0;entryDy=0;endArrow=none;endFill=0;" edge="1" source="sNScvnanyXqIVsTAT2gB-105" target="sNScvnanyXqIVsTAT2gB-103" parent="1">
          <mxGeometry relative="1" as="geometry" />
        </mxCell>
        <mxCell id="sNScvnanyXqIVsTAT2gB-105" value="" style="ellipse;whiteSpace=wrap;html=1;aspect=fixed;" vertex="1" parent="1">
          <mxGeometry x="2386.9999999999995" y="323.89000000000027" width="9.84" height="9.84" as="geometry" />
        </mxCell>
        <mxCell id="sNScvnanyXqIVsTAT2gB-106" value="" style="ellipse;whiteSpace=wrap;html=1;aspect=fixed;" vertex="1" parent="1">
          <mxGeometry x="2376.9999999999995" y="305.8100000000003" width="10" height="10" as="geometry" />
        </mxCell>
        <mxCell id="sNScvnanyXqIVsTAT2gB-107" value="" style="ellipse;whiteSpace=wrap;html=1;aspect=fixed;" vertex="1" parent="1">
          <mxGeometry x="2376.9999999999995" y="365.73000000000013" width="10" height="10" as="geometry" />
        </mxCell>
        <mxCell id="sNScvnanyXqIVsTAT2gB-108" value="num_cli" style="text;html=1;align=center;verticalAlign=middle;resizable=0;points=[];autosize=1;strokeColor=none;fillColor=none;" vertex="1" parent="1">
          <mxGeometry x="2400.97" y="308.8100000000001" width="60" height="30" as="geometry" />
        </mxCell>
        <mxCell id="sNScvnanyXqIVsTAT2gB-109" value="calle_cli" style="text;html=1;align=center;verticalAlign=middle;resizable=0;points=[];autosize=1;strokeColor=none;fillColor=none;" vertex="1" parent="1">
          <mxGeometry x="2387.97" y="282.73" width="70" height="30" as="geometry" />
        </mxCell>
        <mxCell id="sNScvnanyXqIVsTAT2gB-110" value="ciudad_cli" style="text;html=1;align=center;verticalAlign=middle;resizable=0;points=[];autosize=1;strokeColor=none;fillColor=none;" vertex="1" parent="1">
          <mxGeometry x="2382.97" y="365.73" width="80" height="30" as="geometry" />
        </mxCell>
        <mxCell id="sNScvnanyXqIVsTAT2gB-111" value="comuna_cli" style="text;html=1;align=center;verticalAlign=middle;resizable=0;points=[];autosize=1;strokeColor=none;fillColor=none;" vertex="1" parent="1">
          <mxGeometry x="2400.97" y="338.8100000000001" width="80" height="30" as="geometry" />
        </mxCell>
        <mxCell id="sNScvnanyXqIVsTAT2gB-112" value="" style="ellipse;whiteSpace=wrap;html=1;aspect=fixed;" vertex="1" parent="1">
          <mxGeometry x="2386.9999999999995" y="348.8100000000003" width="9.84" height="9.84" as="geometry" />
        </mxCell>
        <mxCell id="sNScvnanyXqIVsTAT2gB-113" style="rounded=0;orthogonalLoop=1;jettySize=auto;html=1;endArrow=none;endFill=0;entryX=0.968;entryY=0.721;entryDx=0;entryDy=0;entryPerimeter=0;" edge="1" source="sNScvnanyXqIVsTAT2gB-112" target="sNScvnanyXqIVsTAT2gB-103" parent="1">
          <mxGeometry relative="1" as="geometry">
            <mxPoint x="2362.97" y="340.81000000000006" as="targetPoint" />
          </mxGeometry>
        </mxCell>
        <mxCell id="sNScvnanyXqIVsTAT2gB-114" value="dir_cli" style="text;html=1;align=center;verticalAlign=middle;resizable=0;points=[];autosize=1;strokeColor=none;fillColor=none;" vertex="1" parent="1">
          <mxGeometry x="2302" y="303.73" width="50" height="30" as="geometry" />
        </mxCell>
        <mxCell id="sNScvnanyXqIVsTAT2gB-115" value="numero_cli" style="text;html=1;align=center;verticalAlign=middle;resizable=0;points=[];autosize=1;strokeColor=none;fillColor=none;" vertex="1" parent="1">
          <mxGeometry x="2212" y="395.73" width="80" height="30" as="geometry" />
        </mxCell>
        <mxCell id="sNScvnanyXqIVsTAT2gB-119" value="" style="ellipse;shape=doubleEllipse;whiteSpace=wrap;html=1;aspect=fixed;" vertex="1" parent="1">
          <mxGeometry x="2226.98" y="385.73" width="10" height="10" as="geometry" />
        </mxCell>
        <mxCell id="sNScvnanyXqIVsTAT2gB-120" style="edgeStyle=orthogonalEdgeStyle;rounded=0;orthogonalLoop=1;jettySize=auto;html=1;exitX=0.5;exitY=1;exitDx=0;exitDy=0;endArrow=none;endFill=0;entryX=0.5;entryY=0;entryDx=0;entryDy=0;" edge="1" parent="1">
          <mxGeometry relative="1" as="geometry">
            <mxPoint x="2231.9" y="385.81000000000006" as="targetPoint" />
            <mxPoint x="2231.9" y="367.27000000000004" as="sourcePoint" />
            <Array as="points">
              <mxPoint x="2231.9" y="377.27000000000004" />
              <mxPoint x="2231.9" y="377.27000000000004" />
            </Array>
          </mxGeometry>
        </mxCell>
        <mxCell id="sNScvnanyXqIVsTAT2gB-122" style="edgeStyle=orthogonalEdgeStyle;rounded=0;orthogonalLoop=1;jettySize=auto;html=1;endArrow=none;endFill=0;" edge="1" source="sNScvnanyXqIVsTAT2gB-123" parent="1">
          <mxGeometry relative="1" as="geometry">
            <mxPoint x="1805" y="313.36" as="targetPoint" />
          </mxGeometry>
        </mxCell>
        <mxCell id="sNScvnanyXqIVsTAT2gB-123" value="" style="ellipse;whiteSpace=wrap;html=1;aspect=fixed;fillColor=#000000;" vertex="1" parent="1">
          <mxGeometry x="1774.9999999999998" y="308.2800000000002" width="10" height="10" as="geometry" />
        </mxCell>
        <mxCell id="sNScvnanyXqIVsTAT2gB-124" style="edgeStyle=orthogonalEdgeStyle;rounded=0;orthogonalLoop=1;jettySize=auto;html=1;endArrow=none;endFill=0;" edge="1" source="sNScvnanyXqIVsTAT2gB-125" parent="1">
          <mxGeometry relative="1" as="geometry">
            <mxPoint x="1805" y="329.08000000000004" as="targetPoint" />
          </mxGeometry>
        </mxCell>
        <mxCell id="sNScvnanyXqIVsTAT2gB-125" value="" style="ellipse;whiteSpace=wrap;html=1;aspect=fixed;" vertex="1" parent="1">
          <mxGeometry x="1774.9999999999998" y="324.0000000000002" width="10" height="10" as="geometry" />
        </mxCell>
        <mxCell id="sNScvnanyXqIVsTAT2gB-126" value="id_producto" style="text;html=1;align=center;verticalAlign=middle;resizable=0;points=[];autosize=1;strokeColor=none;fillColor=none;" vertex="1" parent="1">
          <mxGeometry x="1684.9999999999998" y="296.0800000000002" width="90" height="30" as="geometry" />
        </mxCell>
        <mxCell id="sNScvnanyXqIVsTAT2gB-127" value="precio" style="text;html=1;align=center;verticalAlign=middle;resizable=0;points=[];autosize=1;strokeColor=none;fillColor=none;" vertex="1" parent="1">
          <mxGeometry x="1709.9999999999998" y="334.00000000000017" width="60" height="30" as="geometry" />
        </mxCell>
        <mxCell id="sNScvnanyXqIVsTAT2gB-128" style="edgeStyle=orthogonalEdgeStyle;rounded=0;orthogonalLoop=1;jettySize=auto;html=1;endArrow=none;endFill=0;" edge="1" source="sNScvnanyXqIVsTAT2gB-129" parent="1">
          <mxGeometry relative="1" as="geometry">
            <mxPoint x="1805" y="349.08" as="targetPoint" />
          </mxGeometry>
        </mxCell>
        <mxCell id="sNScvnanyXqIVsTAT2gB-129" value="" style="ellipse;whiteSpace=wrap;html=1;aspect=fixed;" vertex="1" parent="1">
          <mxGeometry x="1774.9999999999998" y="344.00000000000017" width="10" height="10" as="geometry" />
        </mxCell>
        <mxCell id="sNScvnanyXqIVsTAT2gB-130" style="rounded=0;orthogonalLoop=1;jettySize=auto;html=1;endArrow=none;endFill=0;entryX=0.06;entryY=0.996;entryDx=0;entryDy=0;entryPerimeter=0;" edge="1" source="sNScvnanyXqIVsTAT2gB-131" parent="1" target="sNScvnanyXqIVsTAT2gB-5">
          <mxGeometry relative="1" as="geometry">
            <mxPoint x="1805" y="368" as="targetPoint" />
          </mxGeometry>
        </mxCell>
        <mxCell id="sNScvnanyXqIVsTAT2gB-131" value="" style="ellipse;whiteSpace=wrap;html=1;aspect=fixed;" vertex="1" parent="1">
          <mxGeometry x="1774.9999999999998" y="362.9200000000002" width="10" height="10" as="geometry" />
        </mxCell>
        <mxCell id="sNScvnanyXqIVsTAT2gB-132" value="nombre_prod" style="text;html=1;align=center;verticalAlign=middle;resizable=0;points=[];autosize=1;strokeColor=none;fillColor=none;" vertex="1" parent="1">
          <mxGeometry x="1679.9999999999998" y="314.00000000000017" width="90" height="30" as="geometry" />
        </mxCell>
        <mxCell id="sNScvnanyXqIVsTAT2gB-133" value="strock" style="text;html=1;align=center;verticalAlign=middle;resizable=0;points=[];autosize=1;strokeColor=none;fillColor=none;" vertex="1" parent="1">
          <mxGeometry x="1709.9999999999998" y="352.9200000000002" width="60" height="30" as="geometry" />
        </mxCell>
        <mxCell id="sNScvnanyXqIVsTAT2gB-135" style="edgeStyle=orthogonalEdgeStyle;rounded=0;orthogonalLoop=1;jettySize=auto;html=1;endArrow=none;endFill=0;" edge="1" source="sNScvnanyXqIVsTAT2gB-136" parent="1">
          <mxGeometry relative="1" as="geometry">
            <mxPoint x="1805" y="555" as="targetPoint" />
          </mxGeometry>
        </mxCell>
        <mxCell id="sNScvnanyXqIVsTAT2gB-136" value="" style="ellipse;whiteSpace=wrap;html=1;aspect=fixed;" vertex="1" parent="1">
          <mxGeometry x="1774.9999999999998" y="549.9200000000002" width="10" height="10" as="geometry" />
        </mxCell>
        <mxCell id="sNScvnanyXqIVsTAT2gB-137" style="edgeStyle=orthogonalEdgeStyle;rounded=0;orthogonalLoop=1;jettySize=auto;html=1;endArrow=none;endFill=0;" edge="1" source="sNScvnanyXqIVsTAT2gB-138" parent="1">
          <mxGeometry relative="1" as="geometry">
            <mxPoint x="1805" y="575" as="targetPoint" />
          </mxGeometry>
        </mxCell>
        <mxCell id="sNScvnanyXqIVsTAT2gB-138" value="" style="ellipse;whiteSpace=wrap;html=1;aspect=fixed;" vertex="1" parent="1">
          <mxGeometry x="1774.9999999999998" y="569.9200000000002" width="10" height="10" as="geometry" />
        </mxCell>
        <mxCell id="sNScvnanyXqIVsTAT2gB-139" value="nombre_cat" style="text;html=1;align=center;verticalAlign=middle;resizable=0;points=[];autosize=1;strokeColor=none;fillColor=none;" vertex="1" parent="1">
          <mxGeometry x="1679.9999999999998" y="530.0000000000002" width="90" height="30" as="geometry" />
        </mxCell>
        <mxCell id="sNScvnanyXqIVsTAT2gB-140" value="descripcion_cat" style="text;html=1;align=center;verticalAlign=middle;resizable=0;points=[];autosize=1;strokeColor=none;fillColor=none;" vertex="1" parent="1">
          <mxGeometry x="1669.9999999999998" y="560.0000000000001" width="110" height="30" as="geometry" />
        </mxCell>
        <mxCell id="sNScvnanyXqIVsTAT2gB-141" style="edgeStyle=orthogonalEdgeStyle;rounded=0;orthogonalLoop=1;jettySize=auto;html=1;entryX=0.083;entryY=1;entryDx=0;entryDy=0;entryPerimeter=0;endArrow=none;endFill=0;" edge="1" parent="1" source="sNScvnanyXqIVsTAT2gB-142">
          <mxGeometry relative="1" as="geometry">
            <mxPoint x="1829.03" y="588" as="targetPoint" />
          </mxGeometry>
        </mxCell>
        <mxCell id="sNScvnanyXqIVsTAT2gB-142" value="" style="ellipse;whiteSpace=wrap;html=1;aspect=fixed;fillColor=#000;" vertex="1" parent="1">
          <mxGeometry x="1823.78" y="618" width="10" height="10" as="geometry" />
        </mxCell>
        <mxCell id="sNScvnanyXqIVsTAT2gB-143" value="ID_categoria" style="text;html=1;align=center;verticalAlign=middle;resizable=0;points=[];autosize=1;strokeColor=none;fillColor=none;" vertex="1" parent="1">
          <mxGeometry x="1780" y="622.56" width="90" height="30" as="geometry" />
        </mxCell>
        <mxCell id="sNScvnanyXqIVsTAT2gB-144" value="" style="ellipse;whiteSpace=wrap;html=1;aspect=fixed;" vertex="1" parent="1">
          <mxGeometry x="2035" y="368" width="10" height="10" as="geometry" />
        </mxCell>
        <mxCell id="sNScvnanyXqIVsTAT2gB-145" style="rounded=0;orthogonalLoop=1;jettySize=auto;html=1;entryX=1;entryY=1;entryDx=0;entryDy=0;endArrow=none;endFill=0;" edge="1" parent="1" source="sNScvnanyXqIVsTAT2gB-146">
          <mxGeometry relative="1" as="geometry">
            <mxPoint x="2100" y="358" as="targetPoint" />
          </mxGeometry>
        </mxCell>
        <mxCell id="sNScvnanyXqIVsTAT2gB-146" value="" style="ellipse;whiteSpace=wrap;html=1;aspect=fixed;" vertex="1" parent="1">
          <mxGeometry x="2105" y="368" width="10" height="10" as="geometry" />
        </mxCell>
        <mxCell id="sNScvnanyXqIVsTAT2gB-147" value="descuento" style="text;html=1;align=center;verticalAlign=middle;resizable=0;points=[];autosize=1;strokeColor=none;fillColor=none;" vertex="1" parent="1">
          <mxGeometry x="1980.87" y="375.73" width="80" height="30" as="geometry" />
        </mxCell>
        <mxCell id="sNScvnanyXqIVsTAT2gB-148" value="monto_final" style="text;html=1;align=center;verticalAlign=middle;resizable=0;points=[];autosize=1;strokeColor=none;fillColor=none;" vertex="1" parent="1">
          <mxGeometry x="2065" y="376" width="90" height="30" as="geometry" />
        </mxCell>
        <mxCell id="sNScvnanyXqIVsTAT2gB-149" style="rounded=0;orthogonalLoop=1;jettySize=auto;html=1;exitX=0;exitY=1;exitDx=0;exitDy=0;entryX=1;entryY=0;entryDx=0;entryDy=0;endArrow=none;endFill=0;" edge="1" parent="1">
          <mxGeometry relative="1" as="geometry">
            <mxPoint x="2049.54" y="358.46" as="sourcePoint" />
            <mxPoint x="2043.54" y="369.46" as="targetPoint" />
          </mxGeometry>
        </mxCell>
      </root>
    </mxGraphModel>
  </diagram>
</mxfile>
